<?xml version="1.0" encoding="UTF-8" standalone="no"?>
<svg
   width="334"
   height="464"
   enable-background="new 0 0 595.28 841.89"
   version="1.1"
   viewBox="0 0 334.14 463.9"
   xml:space="preserve"
   id="svg8030"
   xmlns="http://www.w3.org/2000/svg"
   xmlns:svg="http://www.w3.org/2000/svg"
   xmlns:rdf="http://www.w3.org/1999/02/22-rdf-syntax-ns#"
   xmlns:cc="http://creativecommons.org/ns#"
   xmlns:dc="http://purl.org/dc/elements/1.1/"><defs
     id="defs8034" /><title
     id="title7942">Teebeutel</title><metadata
     id="metadata7944"><rdf:RDF><cc:Work
         rdf:about=""><dc:format>image/svg+xml</dc:format><dc:type
           rdf:resource="http://purl.org/dc/dcmitype/StillImage" /><dc:title>Teebeutel</dc:title><dc:creator><cc:Agent><dc:title>Entropia e.V.</dc:title></cc:Agent></dc:creator><dc:publisher><cc:Agent><dc:title>Entropia e.V.</dc:title></cc:Agent></dc:publisher></cc:Work></rdf:RDF></metadata><path
     id="rect7946"
     style="fill:#000000;fill-opacity:1"
     d="M 82.660156,0 0,83.029297 V 463.90039 H 334.14062 V 83.029297 L 251.48047,0 Z" /><polygon
     transform="translate(-128.33,-213)"
     points="128.33,676.9 128.33,296.54 194.93,213 384.4,213 462.48,296.54 462.48,676.9 "
     style="display:none;fill:#ea5b0c"
     id="polygon7948" /><g
     transform="translate(-128.33,-213)"
     id="g7970"><path
       d="m 292.94,662.78 c -0.553,3.657 -1.436,6.899 -2.622,9.753 -1.211,2.859 -2.557,5.2 -4.077,7.051 -1.505,1.854 -3.307,3.384 -5.382,4.575 -2.078,1.214 -4.126,2.105 -6.175,2.685 -2.052,0.565 -4.353,0.935 -6.896,1.1 -2.538,0.151 -4.868,0.135 -6.997,-0.01 -2.118,-0.155 -4.459,-0.421 -7.012,-0.817 L 212.5,680.9 c -9.443,-1.423 -16.253,-5.204 -20.437,-11.364 -4.188,-6.163 -5.544,-14.099 -4.074,-23.811 2.969,-19.729 14.163,-28.116 33.604,-25.196 l 7.458,1.127 c 9.27,1.396 15.618,2.445 19.059,3.152 l -5.364,35.588 14.38,2.166 c 0.459,0.067 1.209,0.188 2.215,0.37 1.022,0.186 1.818,0.31 2.365,0.387 1.64,0.256 3.058,0.397 4.239,0.435 1.177,0.03 2.405,-0.027 3.685,-0.216 1.247,-0.185 2.257,-0.643 2.996,-1.402 0.75,-0.75 1.209,-1.763 1.401,-3.052 0.198,-1.318 -0.093,-2.466 -0.915,-3.418 -0.806,-0.969 -2.065,-1.745 -3.785,-2.361 -1.688,-0.608 -3.231,-1.057 -4.585,-1.346 -1.359,-0.306 -3.056,-0.612 -5.093,-0.911 -4.04,-0.616 -6.23,-0.901 -6.605,-0.854 l 3.667,-24.366 5.816,0.871 c 5.702,0.854 10.506,2.032 14.383,3.495 3.884,1.478 7.282,3.557 10.16,6.261 2.885,2.682 4.812,6.214 5.792,10.56 0.984,4.341 1.009,9.602 0.078,15.765 z m -86.586,-14.021 c -0.197,1.266 -0.037,2.398 0.497,3.357 0.545,0.973 1.431,1.77 2.694,2.361 1.273,0.619 2.574,1.101 3.965,1.45 1.36,0.347 3.041,0.666 5.068,0.969 0.942,0.151 2.392,0.34 4.314,0.579 1.916,0.249 3.366,0.434 4.321,0.585 l 1.736,-11.495 -10.683,-1.607 c -7.389,-1.11 -11.366,0.147 -11.912,3.801 z"
       style="fill:#ffffff"
       id="path7954" /><path
       d="m 297.78,622.2 -102.74,-15.471 3.702,-24.508 11.763,1.77 c -4.281,-1.661 -7.26,-4.01 -8.95,-7.054 -1.686,-3.024 -2.235,-6.476 -1.652,-10.358 0.972,-6.425 3.737,-11.121 8.316,-14.075 4.563,-2.957 11.058,-3.805 19.453,-2.536 l 79.198,11.922 -3.637,24.171 -76.668,-11.552 c -2.145,-0.316 -4.097,-0.162 -5.877,0.454 -1.785,0.612 -2.806,1.891 -3.097,3.805 -0.18,1.174 -0.005,2.243 0.543,3.165 0.525,0.915 1.196,1.639 1.981,2.153 0.785,0.514 1.845,0.989 3.184,1.423 1.327,0.438 2.346,0.717 3.083,0.848 0.727,0.135 1.682,0.282 2.872,0.468 l 72.234,10.876 -3.705,24.499 z"
       style="fill:#ffffff"
       id="path7956" /><path
       d="m 188.18,531.35 3.593,-23.827 21.843,3.29 0.661,-4.369 18.684,2.805 -0.667,4.384 57.791,8.699 c 0.859,0.135 1.542,0.212 2.046,0.249 0.514,0.033 1.057,0.021 1.652,-0.037 0.591,-0.047 1.053,-0.242 1.348,-0.592 0.32,-0.347 0.52,-0.835 0.619,-1.417 0.086,-0.588 0.076,-1.197 -0.021,-1.819 l 16.693,2.513 c 0.668,3.646 0.614,8.091 -0.168,13.339 -0.402,2.644 -1.099,4.867 -2.088,6.66 -1.006,1.776 -2.09,3.122 -3.273,4.017 -1.188,0.885 -2.632,1.527 -4.346,1.908 -1.721,0.363 -3.29,0.518 -4.734,0.478 -1.44,-0.058 -3.075,-0.223 -4.887,-0.498 l -64.218,-9.686 -0.57,3.774 -18.679,-2.815 0.574,-3.771 z"
       style="fill:#ffffff"
       id="path7958" /><path
       d="m 314.43,511.73 -102.68,-15.471 3.694,-24.5 11.422,1.715 c -4.493,-2.082 -7.492,-4.487 -8.989,-7.229 -1.495,-2.752 -1.964,-6.025 -1.393,-9.797 0.687,-4.571 2.696,-8.373 6.01,-11.417 3.331,-3.055 7.677,-4.165 13.004,-3.374 l 34.369,5.184 -3.613,23.955 -24.569,-3.693 c -1.228,-0.195 -2.274,-0.289 -3.139,-0.307 -0.861,-0.014 -1.726,0.229 -2.589,0.73 -0.868,0.494 -1.391,1.326 -1.561,2.463 -0.178,1.184 0.187,2.317 1.088,3.381 0.92,1.08 2.29,1.756 4.106,2.028 l 78.529,11.817 -3.694,24.515 z"
       style="fill:#ffffff"
       id="path7960" /><path
       d="m 329.79,418.13 c -3.083,20.447 -15.284,29.068 -36.606,25.849 l -41.209,-6.197 c -9.813,-1.486 -17.173,-5.402 -22.088,-11.746 -4.937,-6.332 -6.676,-14.247 -5.248,-23.747 1.44,-9.537 5.441,-16.608 12.02,-21.217 6.566,-4.612 14.758,-6.19 24.573,-4.706 l 41.209,6.207 c 10.731,1.618 18.341,5.443 22.839,11.461 4.52,6.025 6.016,14.058 4.51,24.096 z m -77.95,-5.86 50.175,7.556 c 2.738,0.41 4.81,0.182 6.228,-0.71 1.412,-0.885 2.255,-2.156 2.502,-3.852 0.258,-1.689 -0.166,-3.169 -1.248,-4.427 -1.098,-1.258 -3.012,-2.092 -5.754,-2.506 l -50.169,-7.562 c -5.977,-0.895 -9.255,0.576 -9.838,4.404 -0.577,3.83 2.133,6.199 8.104,7.097 z"
       style="fill:#ffffff"
       id="path7962" /><path
       d="m 351.12,354.48 -3.748,24.931 -115.4,-17.386 3.751,-24.914 5.544,0.828 c -3.964,-4.376 -5.481,-9.611 -4.551,-15.733 0.488,-3.291 1.439,-6.126 2.869,-8.498 1.438,-2.361 3.167,-4.208 5.186,-5.514 2.008,-1.309 4.418,-2.264 7.206,-2.839 2.801,-0.582 5.67,-0.845 8.604,-0.797 2.92,0.047 6.148,0.333 9.672,0.864 l 37.568,5.655 c 0.09,0.01 0.207,0.027 0.356,0.05 3.271,0.505 5.78,0.895 7.474,1.198 1.711,0.313 4.072,0.824 7.095,1.561 3.009,0.727 5.323,1.483 6.93,2.271 1.603,0.767 3.448,1.864 5.488,3.277 2.059,1.402 3.536,2.954 4.449,4.642 0.908,1.706 1.603,3.815 2.098,6.318 0.478,2.496 0.501,5.268 0.04,8.323 -0.936,6.173 -3.397,10.576 -7.388,13.241 z m -86.584,-13.036 44.975,6.772 c 3.686,0.562 6.507,0.524 8.453,-0.094 1.936,-0.609 3.066,-1.992 3.389,-4.138 0.291,-1.911 -0.427,-3.425 -2.162,-4.525 -1.725,-1.107 -4.747,-1.975 -9.078,-2.634 l -43.605,-6.57 c -1.07,-0.148 -1.805,-0.255 -2.266,-0.299 -0.466,-0.05 -1.231,-0.111 -2.313,-0.198 -1.09,-0.101 -1.926,-0.078 -2.531,0.067 -0.609,0.142 -1.295,0.347 -2.054,0.633 -0.771,0.282 -1.364,0.733 -1.797,1.335 -0.403,0.619 -0.681,1.382 -0.824,2.297 -0.574,3.829 2.696,6.278 9.813,7.354 z"
       style="fill:#ffffff"
       id="path7964" /><path
       d="m 236.31,289.94 -12.037,-1.82 3.68,-24.503 12.043,1.823 z m 109.06,16.43 -102.75,-15.475 3.69,-24.507 102.74,15.478 -3.686,24.504 z"
       style="fill:#ffffff"
       id="path7966" /><path
       d="m 320.9,268.87 c -9.08,-1.369 -15.705,-3.734 -19.857,-7.118 -3.574,-2.92 -6.281,-7.461 -8.111,-13.611 -0.932,-3.128 -2.352,-10.025 -4.294,-20.672 -0.057,-0.003 -0.118,-0.013 -0.215,-0.033 -1.463,-0.219 -2.654,-0.38 -3.558,-0.495 -0.923,-0.121 -1.951,-0.249 -3.09,-0.4 -1.155,-0.145 -2.074,-0.252 -2.762,-0.31 -0.685,-0.05 -1.45,-0.098 -2.279,-0.128 -0.841,-0.04 -1.487,-0.03 -1.941,0.01 -0.446,0.05 -0.947,0.151 -1.509,0.276 -0.552,0.118 -0.98,0.292 -1.297,0.498 -0.318,0.215 -0.605,0.46 -0.883,0.743 -0.271,0.286 -0.49,0.639 -0.654,1.053 -0.148,0.424 -0.27,0.885 -0.349,1.386 -0.496,3.384 1.125,5.355 4.856,5.924 l 6.908,1.029 -3.587,23.828 c -0.774,-0.078 -1.901,-0.226 -3.368,-0.444 -9.768,-1.467 -16.561,-4.854 -20.406,-10.176 -3.84,-5.318 -4.94,-13.409 -3.312,-24.268 0.539,-3.512 1.539,-6.842 3.002,-9.978 1.482,-3.142 3.398,-5.978 5.766,-8.511 2.378,-2.537 5.391,-4.397 9.078,-5.601 3.687,-1.188 7.739,-1.46 12.161,-0.791 l 78.24,11.777 -3.676,24.373 -10.674,-1.608 c 2.874,1.268 5.346,3.586 7.362,6.92 2.02,3.333 2.764,6.718 2.245,10.149 -0.365,2.463 -0.922,4.589 -1.638,6.402 -0.705,1.803 -1.866,3.539 -3.478,5.214 -1.593,1.665 -3.599,2.94 -5.991,3.818 -2.401,0.881 -5.521,1.41 -9.349,1.608 -3.833,0.183 -8.283,-0.104 -13.34,-0.864 z m -5.81,-26.428 11.96,1.8 c 6.079,0.918 9.399,-0.447 9.944,-4.101 0.149,-1 -0.01,-1.915 -0.438,-2.718 -0.44,-0.817 -1.06,-1.463 -1.875,-1.961 -0.803,-0.501 -1.611,-0.878 -2.424,-1.14 -0.803,-0.249 -1.632,-0.451 -2.493,-0.582 l -27.038,-4.074 c 1.046,4.447 2.607,7.576 4.639,9.376 2.041,1.799 4.613,2.933 7.725,3.4 z"
       style="fill:#ffffff"
       id="path7968" /></g><path
     d="m 300.01,310.83 c 0,0 30.428,-47.083 43.06,-133.77"
     stroke-miterlimit="10"
     style="fill:none;stroke:#ffffff;stroke-width:13;stroke-miterlimit:10"
     id="path7972" /><g
     transform="translate(-128.33,-213)"
     id="g8018"><polygon
       points="395.07,660.56 313.72,606.72 375.01,514.13 404.68,504.52 450.81,535.05 456.35,567.96 "
       style="fill:#ffffff;fill-opacity:1"
       id="polygon7974" /><polygon
       points="405.1,618.44 348.94,581.32 326.02,616.08 382.18,653.2 "
       style="fill:#000000;fill-opacity:1"
       id="polygon7976" /><polygon
       points="379.56,616.97 413.02,566.25 395.2,554.47 361.74,605.19 "
       style="fill:#000000;fill-opacity:1"
       id="polygon7978" /><polygon
       points="368.71,594.61 386.53,606.38 382.39,612.66 364.57,600.88 "
       style="fill:#ffffff"
       id="polygon7980" /><polygon
       points="326.26,615.63 324.5,618.33 380.71,655.34 382.48,652.64 "
       style="fill:#ffffff;fill-opacity:1"
       id="polygon7982"
       transform="translate(0,2)" /><g
       stroke-miterlimit="10"
       id="g8000"><line
         x1="345.17001"
         x2="326.98999"
         y1="598.31"
         y2="625.64001"
         style="fill:none;stroke:#000000;stroke-width:5;stroke-miterlimit:10;stroke-opacity:1"
         id="line7984" /><line
         x1="351.69"
         x2="333.51999"
         y1="602.65997"
         y2="629.97998"
         style="fill:none;stroke:#000000;stroke-width:5;stroke-miterlimit:10;stroke-opacity:1"
         id="line7986" /><line
         x1="358.20999"
         x2="340.04001"
         y1="606.98999"
         y2="634.32001"
         style="fill:none;stroke:#000000;stroke-width:5;stroke-miterlimit:10;stroke-opacity:1"
         id="line7988" /><line
         x1="364.73001"
         x2="346.56"
         y1="611.33002"
         y2="638.65997"
         style="fill:none;stroke:#000000;stroke-width:5;stroke-miterlimit:10;stroke-opacity:1"
         id="line7990" /><line
         x1="371.26001"
         x2="353.07999"
         y1="615.66998"
         y2="642.98999"
         style="fill:none;stroke:#000000;stroke-width:5;stroke-miterlimit:10;stroke-opacity:1"
         id="line7992" /><line
         x1="384.29999"
         x2="366.13"
         y1="624.34998"
         y2="651.66998"
         style="fill:none;stroke:#000000;stroke-width:5;stroke-miterlimit:10;stroke-opacity:1"
         id="line7994" /><line
         x1="390.82999"
         x2="372.64999"
         y1="628.67999"
         y2="656.01001"
         style="fill:none;stroke:#000000;stroke-width:5;stroke-miterlimit:10;stroke-opacity:1"
         id="line7996" /><line
         x1="377.78"
         x2="359.60999"
         y1="620.01001"
         y2="647.33002"
         style="fill:none;stroke:#000000;stroke-width:5;stroke-miterlimit:10;stroke-opacity:1"
         id="line7998" /></g><g
       stroke-miterlimit="10"
       id="g8008"><line
         x1="459.32001"
         x2="433.47"
         y1="556.44"
         y2="539.26001"
         style="fill:none;stroke:#000000;stroke-width:5;stroke-miterlimit:10;stroke-opacity:1"
         id="line8002" /><line
         x1="459.32001"
         x2="428.64999"
         y1="566.90002"
         y2="546.5"
         style="fill:none;stroke:#000000;stroke-width:5;stroke-miterlimit:10;stroke-opacity:1"
         id="line8004" /><line
         x1="457.06"
         x2="438.29001"
         y1="544.48999"
         y2="532.01001"
         style="fill:none;stroke:#000000;stroke-width:5;stroke-miterlimit:10;stroke-opacity:1"
         id="line8006" /></g><g
       stroke-miterlimit="10"
       id="g8016"><line
         x1="412.48001"
         x2="379.23999"
         y1="525.46002"
         y2="503.35001"
         style="fill:none;stroke:#000000;stroke-width:5;stroke-miterlimit:10;stroke-opacity:1"
         id="line8010" /><line
         x1="407.66"
         x2="374.42001"
         y1="532.71002"
         y2="510.60001"
         style="fill:none;stroke:#000000;stroke-width:5;stroke-miterlimit:10;stroke-opacity:1"
         id="line8012" /><line
         x1="417.29999"
         x2="384.06"
         y1="518.21002"
         y2="496.10001"
         style="fill:none;stroke:#000000;stroke-width:5;stroke-miterlimit:10;stroke-opacity:1"
         id="line8014" /></g></g><g
     transform="translate(-128.33,-213)"
     id="g8028"><path
       d="m 357.05,308.44 c -0.85,-0.121 -1.608,-0.317 -2.27,-0.589 -0.667,-0.273 -1.212,-0.579 -1.65,-0.929 -0.432,-0.348 -0.789,-0.763 -1.073,-1.239 -0.284,-0.479 -0.497,-0.956 -0.634,-1.427 -0.144,-0.474 -0.229,-1.008 -0.27,-1.596 -0.042,-0.588 -0.047,-1.132 -0.016,-1.628 0.031,-0.493 0.089,-1.04 0.173,-1.634 l 1.352,-9.594 c 0.311,-2.198 1.176,-3.786 2.599,-4.769 1.421,-0.987 3.261,-1.317 5.521,-1.004 4.581,0.649 6.558,3.229 5.918,7.748 l -0.242,1.739 c -0.306,2.153 -0.535,3.631 -0.69,4.43 l -8.276,-1.167 -0.471,3.346 c -0.016,0.102 -0.039,0.275 -0.081,0.513 -0.038,0.24 -0.066,0.423 -0.086,0.552 -0.055,0.379 -0.084,0.708 -0.092,0.986 -0.003,0.272 0.015,0.554 0.062,0.854 0.044,0.289 0.155,0.523 0.329,0.692 0.176,0.168 0.414,0.277 0.713,0.32 0.307,0.042 0.573,-0.033 0.793,-0.223 0.223,-0.189 0.398,-0.484 0.539,-0.882 0.136,-0.397 0.237,-0.751 0.305,-1.069 0.064,-0.315 0.129,-0.713 0.2,-1.188 0.13,-0.933 0.192,-1.441 0.182,-1.533 l 5.664,0.798 -0.189,1.354 c -0.186,1.328 -0.449,2.444 -0.776,3.347 -0.335,0.905 -0.812,1.697 -1.433,2.372 -0.617,0.678 -1.434,1.129 -2.438,1.365 -1.013,0.236 -2.233,0.253 -3.663,0.055 z m 3.066,-20.134 c -0.301,-0.046 -0.561,-0.002 -0.781,0.122 -0.225,0.129 -0.406,0.337 -0.544,0.633 -0.142,0.293 -0.25,0.598 -0.326,0.92 -0.076,0.317 -0.151,0.711 -0.215,1.176 -0.032,0.225 -0.071,0.559 -0.126,1.007 -0.053,0.442 -0.093,0.779 -0.126,1.004 l 2.676,0.379 0.35,-2.483 c 0.243,-1.719 -0.06,-2.64 -0.908,-2.758 z"
       style="fill:#ffffff"
       id="path8020" /><path
       d="m 366.08,309.41 0.672,-4.743 5.701,0.807 -0.67,4.74 z"
       style="fill:#ffffff"
       id="path8022" /><path
       d="m 383.45,311.87 -7.64,-1.073 0.12,-25.844 5.647,0.796 -0.796,17.029 4.042,-16.573 5.651,0.798 z"
       style="fill:#ffffff"
       id="path8024" /><path
       d="m 387.49,312.42 0.668,-4.745 5.698,0.806 -0.667,4.738 z"
       style="fill:#ffffff"
       id="path8026" /></g></svg>
